<svg xmlns="http://www.w3.org/2000/svg" version="1.1" xmlns:xlink="http://www.w3.org/1999/xlink" xmlns:svgjs="http://svgjs.dev/svgjs" width="1000" height="1012" viewBox="0 0 1000 1012"><g transform="matrix(1,0,0,1,0.8839381644977493,0.40971659919023296)"><svg viewBox="0 0 244 247" data-background-color="#77d4fc" preserveAspectRatio="xMidYMid meet" height="1012" width="1000" xmlns="http://www.w3.org/2000/svg" xmlns:xlink="http://www.w3.org/1999/xlink"><g id="tight-bounds" transform="matrix(1,0,0,1,-0.21568076827921345,-0.09999999999999432)"><svg viewBox="0 0 244.43135999999998 247.2" height="247.2" width="244.43135999999998"><g><svg></svg></g><g><svg viewBox="0 0 244.43135999999998 247.2" height="247.2" width="244.43135999999998"><g transform="matrix(1,0,0,1,0,70.24879808923578)"><svg viewBox="0 0 244.43135999999998 106.70240382152843" height="106.70240382152843" width="244.43135999999998"><g><svg viewBox="0 0 244.43135999999998 106.70240382152843" height="106.70240382152843" width="244.43135999999998"><g><svg viewBox="0 0 244.43135999999998 106.70240382152843" height="106.70240382152843" width="244.43135999999998"><g><svg viewBox="0 0 244.43135999999998 106.70240382152843" height="106.70240382152843" width="244.43135999999998"><g><svg viewBox="0 0 244.43135999999998 106.70240382152843" height="106.70240382152843" width="244.43135999999998"><g><svg viewBox="0 0 244.43135999999998 65.16158439987657" height="65.16158439987657" width="244.43135999999998"><g transform="matrix(1,0,0,1,0,0)"><svg width="244.43135999999998" viewBox="1.6500000953674316 -37.5 162.04000854492188 43.20000076293945" height="65.16158439987657" data-palette-color="#000000"><path d="M22.8-31.2L22.8-31.2Q22.8-29.3 21.98-28.13 21.15-26.95 19.6-26.95L19.6-26.95Q18.2-26.95 17.1-28L17.1-28Q17.8-28.5 18.18-29.45 18.55-30.4 18.55-31.4L18.55-31.4Q18.55-32.95 17.55-33.95 16.55-34.95 14.5-34.95L14.5-34.95Q12.25-34.95 11.25-33.7 10.25-32.45 10.25-30.35L10.25-30.35Q10.25-27.9 11.43-26.35 12.6-24.8 14.35-23.58 16.1-22.35 18.13-21.25 20.15-20.15 21.9-18.65 23.65-17.15 24.83-15.03 26-12.9 26-9.6L26-9.6Q26-6.8 25.08-4.8 24.15-2.8 22.55-1.53 20.95-0.25 18.75 0.33 16.55 0.9 13.95 0.9L13.95 0.9Q11.65 0.9 9.43 0.43 7.2-0.05 5.48-1.13 3.75-2.2 2.7-3.98 1.65-5.75 1.65-8.3L1.65-8.3Q1.65-10 2.13-11.4 2.6-12.8 3.43-13.75 4.25-14.7 5.35-15.23 6.45-15.75 7.65-15.75L7.65-15.75Q8.25-15.75 8.95-15.6 9.65-15.45 10.35-15.08 11.05-14.7 11.65-14.05 12.25-13.4 12.6-12.45L12.6-12.45Q11.7-12.45 10.8-12.25 9.9-12.05 9.18-11.55 8.45-11.05 8-10.18 7.55-9.3 7.55-7.95L7.55-7.95Q7.55-5.35 9.15-4.23 10.75-3.1 13.15-3.1L13.15-3.1Q15.55-3.1 16.85-4.25 18.15-5.4 18.15-8.2L18.15-8.2Q18.15-10.8 17.07-12.6 16-14.4 14.35-15.75 12.7-17.1 10.83-18.28 8.95-19.45 7.3-20.83 5.65-22.2 4.58-24.05 3.5-25.9 3.5-28.6L3.5-28.6Q3.5-32.95 6.4-35.23 9.3-37.5 14.3-37.5L14.3-37.5Q15-37.5 16.43-37.38 17.85-37.25 19.28-36.63 20.7-36 21.75-34.73 22.8-33.45 22.8-31.2ZM38.65-25.25L38.65-25.25Q42.1-25.25 44.15-23.38 46.2-21.5 46.8-17.35L46.8-17.35 47.15-17.35Q47.85-17.35 48.72-17.6 49.6-17.85 50.55-18.25 51.5-18.65 52.4-19.2 53.3-19.75 54-20.35L54-20.35 54.75-19Q54.2-18.2 53.37-17.55 52.55-16.9 51.5-16.38 50.45-15.85 49.3-15.48 48.15-15.1 47-14.9L47-14.9Q47.05-14.55 47.05-14.23 47.05-13.9 47.05-13.55L47.05-13.55Q47.05-10.65 46.55-8.13 46.05-5.6 44.87-3.73 43.7-1.85 41.85-0.78 40 0.3 37.3 0.3L37.3 0.3Q35.45 0.3 33.77-0.28 32.1-0.85 30.8-2.18 29.5-3.5 28.72-5.68 27.95-7.85 27.95-11L27.95-11Q27.95-13.15 28.4-15.63 28.85-18.1 30.05-20.25 31.25-22.4 33.32-23.83 35.4-25.25 38.65-25.25ZM38.7-4.4L38.7-4.4Q39.75-4.4 40.52-5.13 41.3-5.85 41.8-7.13 42.3-8.4 42.52-10.15 42.75-11.9 42.75-13.95L42.75-13.95 42.75-14.7Q41.5-14.95 41.15-15.65 40.8-16.35 40.8-17.2L40.8-17.2Q40.8-18.25 41.15-18.8 41.5-19.35 42.05-19.55L42.05-19.55Q41.5-21.25 40.72-21.75 39.95-22.25 39.4-22.25L39.4-22.25Q38.3-22.25 37.52-21.23 36.75-20.2 36.25-18.63 35.75-17.05 35.52-15.15 35.3-13.25 35.3-11.5L35.3-11.5Q35.3-9.25 35.62-7.85 35.95-6.45 36.45-5.7 36.95-4.95 37.55-4.67 38.15-4.4 38.7-4.4ZM50.75-34L57.95-35 57.95-8Q57.95-5.9 58.52-5.23 59.1-4.55 60.55-4.55L60.55-4.55Q62-4.55 62.97-5.8 63.95-7.05 64.1-8.95L64.1-8.95 66.2-8.95Q65.8-5.9 64.8-4.08 63.8-2.25 62.55-1.28 61.3-0.3 60 0 58.7 0.3 57.7 0.3L57.7 0.3Q53.85 0.3 52.3-1.83 50.75-3.95 50.75-7.45L50.75-7.45 50.75-34ZM73.94-25.25L73.94-25.25Q77.39-25.25 79.44-23.38 81.49-21.5 82.09-17.35L82.09-17.35 82.44-17.35Q83.14-17.35 84.02-17.6 84.89-17.85 85.84-18.25 86.79-18.65 87.69-19.2 88.59-19.75 89.29-20.35L89.29-20.35 90.04-19Q89.49-18.2 88.67-17.55 87.84-16.9 86.79-16.38 85.74-15.85 84.59-15.48 83.44-15.1 82.29-14.9L82.29-14.9Q82.34-14.55 82.34-14.23 82.34-13.9 82.34-13.55L82.34-13.55Q82.34-10.65 81.84-8.13 81.34-5.6 80.17-3.73 78.99-1.85 77.14-0.78 75.29 0.3 72.59 0.3L72.59 0.3Q70.74 0.3 69.07-0.28 67.39-0.85 66.09-2.18 64.79-3.5 64.02-5.68 63.24-7.85 63.24-11L63.24-11Q63.24-13.15 63.69-15.63 64.14-18.1 65.34-20.25 66.54-22.4 68.62-23.83 70.69-25.25 73.94-25.25ZM73.99-4.4L73.99-4.4Q75.04-4.4 75.82-5.13 76.59-5.85 77.09-7.13 77.59-8.4 77.82-10.15 78.04-11.9 78.04-13.95L78.04-13.95 78.04-14.7Q76.79-14.95 76.44-15.65 76.09-16.35 76.09-17.2L76.09-17.2Q76.09-18.25 76.44-18.8 76.79-19.35 77.34-19.55L77.34-19.55Q76.79-21.25 76.02-21.75 75.24-22.25 74.69-22.25L74.69-22.25Q73.59-22.25 72.82-21.23 72.04-20.2 71.54-18.63 71.04-17.05 70.82-15.15 70.59-13.25 70.59-11.5L70.59-11.5Q70.59-9.25 70.92-7.85 71.24-6.45 71.74-5.7 72.24-4.95 72.84-4.67 73.44-4.4 73.99-4.4ZM111.54 0L104.29 0 104.29-18.15Q102.24-19 100.64-19.38 99.04-19.75 97.44-19.9L97.44-19.9Q96.84-17.6 96.39-15.23 95.94-12.85 95.64-10.53 95.34-8.2 95.19-6 95.04-3.8 95.04-1.95L95.04-1.95Q95.04 0.15 95.22 1.5 95.39 2.85 95.67 3.68 95.94 4.5 96.27 4.95 96.59 5.4 96.84 5.7L96.84 5.7Q95.59 5.7 94.17 5.55 92.74 5.4 91.52 4.58 90.29 3.75 89.49 2.05 88.69 0.35 88.69-2.8L88.69-2.8Q88.69-4.45 88.94-6.45 89.19-8.45 89.64-10.68 90.09-12.9 90.77-15.28 91.44-17.65 92.29-20L92.29-20Q89.89-19.85 88.44-19.25 86.99-18.65 86.74-17.35L86.74-17.35Q86.99-17.35 87.39-16.73 87.79-16.1 87.79-15.5L87.79-15.5Q87.79-14.75 87.09-14.3 86.39-13.85 85.34-13.85L85.34-13.85Q83.89-13.85 82.72-14.75 81.54-15.65 81.54-17.4L81.54-17.4Q81.54-19.8 83.99-21.35 86.44-22.9 90.44-22.9L90.44-22.9Q91.64-22.9 93.39-22.75L93.39-22.75Q94.64-25.75 96.19-28.43 97.74-31.1 99.54-33.13 101.34-35.15 103.34-36.33 105.34-37.5 107.54-37.5L107.54-37.5Q108.29-37.5 109.42-37.35 110.54-37.2 111.54-36.8L111.54-36.8 111.54 0ZM104.29-20.35L104.29-33.9Q102.39-32.65 100.79-29.45 99.19-26.25 98.04-22.05L98.04-22.05Q99.59-21.75 101.17-21.33 102.74-20.9 104.29-20.35L104.29-20.35ZM129.59-34L136.79-35 136.79-8Q136.79-5.9 137.36-5.23 137.94-4.55 139.39-4.55L139.39-4.55Q140.84-4.55 141.81-5.8 142.79-7.05 142.94-8.95L142.94-8.95 145.04-8.95Q144.64-5.9 143.64-4.08 142.64-2.25 141.39-1.28 140.14-0.3 138.84 0 137.54 0.3 136.54 0.3L136.54 0.3Q133.89 0.3 132.51-0.93 131.14-2.15 130.59-4.3L130.59-4.3Q130.19-3.45 129.64-2.63 129.09-1.8 128.31-1.15 127.54-0.5 126.51-0.1 125.49 0.3 124.14 0.3L124.14 0.3Q122.54 0.3 120.99-0.3 119.44-0.9 118.16-2.25 116.89-3.6 116.11-5.83 115.34-8.05 115.34-11.3L115.34-11.3Q115.34-13.6 115.86-16.05 116.39-18.5 117.51-20.55 118.64-22.6 120.46-23.93 122.29-25.25 124.89-25.25L124.89-25.25Q125.49-25.25 126.19-25.18 126.89-25.1 127.54-24.83 128.19-24.55 128.74-24.03 129.29-23.5 129.59-22.6L129.59-22.6 129.59-34ZM129.59-8.95L129.59-20.2Q129.54-20.4 129.39-20.73 129.24-21.05 128.94-21.38 128.64-21.7 128.19-21.93 127.74-22.15 127.14-22.15L127.14-22.15Q125.94-22.15 125.06-21.13 124.19-20.1 123.66-18.57 123.14-17.05 122.89-15.23 122.64-13.4 122.64-11.75L122.64-11.75Q122.64-9.1 123.04-7.63 123.44-6.15 124.01-5.48 124.59-4.8 125.24-4.67 125.89-4.55 126.34-4.55L126.34-4.55Q126.89-4.55 127.46-4.83 128.04-5.1 128.51-5.65 128.99-6.2 129.29-7.03 129.59-7.85 129.59-8.95L129.59-8.95ZM161.59-8.95L163.69-8.95Q162.14-6.6 160.39-5.1 158.64-3.6 157.14-2.55L157.14-2.55Q155.84-1 153.89-0.35 151.94 0.3 150.14 0.3L150.14 0.3Q147.94 0.3 146.29-0.4 144.64-1.1 143.54-2.18 142.44-3.25 141.89-4.58 141.34-5.9 141.34-7.1L141.34-7.1Q141.34-8.45 141.86-9.4 142.39-10.35 143.19-10.75L143.19-10.75Q144.64-14.5 145.61-18.18 146.59-21.85 146.99-25.55L146.99-25.55 154.19-26.55Q155.44-21.7 156.29-18.68 157.14-15.65 157.64-13.63 158.14-11.6 158.34-10.1 158.54-8.6 158.54-6.75L158.54-6.75 158.54-6.45Q160.34-7.7 161.59-8.95L161.59-8.95ZM147.14-8.5L147.14-8.5Q147.14-7.75 146.69-7.13 146.24-6.5 145.39-6.5L145.39-6.5Q144.99-6.5 144.56-6.63 144.14-6.75 143.89-7.15L143.89-7.15Q144.29-5.4 145.16-4.53 146.04-3.65 147.69-3.65L147.69-3.65Q149.14-3.65 150.19-4.42 151.24-5.2 151.24-7.15L151.24-7.15Q151.24-8.5 151.09-9.58 150.94-10.65 150.61-12 150.29-13.35 149.76-15.2 149.24-17.05 148.49-19.85L148.49-19.85Q147.99-17.45 147.26-15.23 146.54-13 145.74-10.6L145.74-10.6Q146.29-10.35 146.71-9.83 147.14-9.3 147.14-8.5Z" opacity="1" transform="matrix(1,0,0,1,0,0)" fill="#000000" class="undefined-text-0" data-fill-palette-color="primary" id="text-0"></path></svg></g></svg></g><g transform="matrix(1,0,0,1,0,80.54467059866184)"><svg viewBox="0 0 244.43135999999998 26.157733222866607" height="26.157733222866607" width="244.43135999999998"><g transform="matrix(1,0,0,1,0,0)"><svg width="244.43135999999998" viewBox="2.299999952316284 -38.099998474121094 362.05999755859375 38.75" height="26.157733222866607" data-palette-color="#001f3f"><path d="M18.9 0.6L18.9 0.6Q14.6 0.6 11.48-0.9 8.35-2.4 6.3-4.98 4.25-7.55 3.28-10.8 2.3-14.05 2.3-17.5L2.3-17.5Q2.3-21.25 3.4-24.73 4.5-28.2 6.63-30.95 8.75-33.7 11.95-35.3 15.15-36.9 19.35-36.9L19.35-36.9Q21.1-36.9 23.18-36.48 25.25-36.05 27.15-35.2 29.05-34.35 30.25-32.95L30.25-32.95 27.65-30.05Q26.2-31.65 23.78-32.52 21.35-33.4 19.25-33.4L19.25-33.4Q16.35-33.4 14.15-32.08 11.95-30.75 10.45-28.5 8.95-26.25 8.18-23.45 7.4-20.65 7.4-17.75L7.4-17.75Q7.4-13.25 8.85-9.98 10.3-6.7 12.95-4.93 15.6-3.15 19.2-3.15L19.2-3.15Q21.3-3.15 23.75-3.75 26.2-4.35 28.8-5.65L28.8-5.65 30.35-2.8Q28.9-1.75 26.88-1 24.85-0.25 22.75 0.18 20.65 0.6 18.9 0.6ZM33.65-24.75L38.15-25.3Q39.05-23.1 39.3-20.65L39.3-20.65Q40.6-22.7 42.8-24 45-25.3 47.45-25.3L47.45-25.3 46.45-20.9Q44.05-20.9 42.37-19.65 40.7-18.4 39.4-16.5L39.4-16.5 39.4 0 35.25 0 35.25-18Q35.25-19 35.1-20.25 34.95-21.5 34.6-22.7 34.25-23.9 33.65-24.75L33.65-24.75ZM62.15-25.45L62.15-25.45Q65.15-25.45 67.2-24.23 69.25-23 70.27-20.83 71.3-18.65 71.3-15.75L71.3-15.75Q71.3-15.05 71.22-14.33 71.15-13.6 71.05-12.8L71.05-12.8 55.25-12.8Q55.25-8.05 57.35-5.45 59.45-2.85 62.95-2.85L62.95-2.85Q64.4-2.85 65.97-3.3 67.55-3.75 69.25-4.65L69.25-4.65 70.8-2.15Q69.05-0.75 66.84-0.05 64.65 0.65 62.4 0.65L62.4 0.65Q58.5 0.65 55.92-1.2 53.35-3.05 52.1-6 50.85-8.95 50.85-12.15L50.85-12.15Q50.85-14.65 51.55-17 52.25-19.35 53.67-21.28 55.1-23.2 57.2-24.33 59.3-25.45 62.15-25.45ZM61.75-22.3L61.75-22.3Q60.05-22.3 58.75-21.35 57.45-20.4 56.65-18.93 55.85-17.45 55.55-15.9L55.55-15.9 66.95-15.9Q67-18 66.37-19.43 65.75-20.85 64.57-21.58 63.4-22.3 61.75-22.3ZM85.99-25.45L85.99-25.45Q89.94-25.45 91.94-23.3 93.94-21.15 93.94-17.25L93.94-17.25 93.94-4.8Q93.94-3.75 94.34-3.38 94.74-3 95.29-3L95.29-3Q95.74-3 96.24-3.13 96.74-3.25 97.19-3.45L97.19-3.45 98.09-0.75Q97.29-0.3 96.07 0.08 94.84 0.45 93.54 0.45L93.54 0.45Q92.24 0.45 91.19-0.28 90.14-1 89.89-2.95L89.89-2.95Q88.44-1.4 86.49-0.43 84.54 0.55 82.39 0.55L82.39 0.55Q79.44 0.55 77.49-1.2 75.54-2.95 75.54-6L75.54-6Q75.54-8.85 76.92-10.55 78.29-12.25 80.49-13.1 82.69-13.95 85.17-14.25 87.64-14.55 89.79-14.55L89.79-14.55 89.79-17.2Q89.79-19.3 88.94-20.75 88.09-22.2 85.64-22.2L85.64-22.2Q83.74-22.2 81.99-21.45 80.24-20.7 78.49-19.25L78.49-19.25 76.44-22.2Q78.49-23.85 80.94-24.65 83.39-25.45 85.99-25.45ZM89.79-9.7L89.79-11.3Q88.44-11.3 86.74-11.18 85.04-11.05 83.44-10.58 81.84-10.1 80.82-9.05 79.79-8 79.79-6.15L79.79-6.15Q79.79-4.5 80.92-3.73 82.04-2.95 83.74-2.95L83.74-2.95Q85.54-2.95 86.89-3.95 88.24-4.95 89.02-6.5 89.79-8.05 89.79-9.7L89.79-9.7ZM104.84-31.95L107.89-31.95Q107.54-30.25 107.27-28.43 106.99-26.6 106.89-24.85L106.89-24.85 113.39-24.85 112.54-21.7 106.89-21.7 106.89-5.8Q106.89-4.85 107.12-4.13 107.34-3.4 107.92-3.03 108.49-2.65 109.54-2.65L109.54-2.65Q110.34-2.65 111.14-2.8 111.94-2.95 112.69-3.15L112.69-3.15 113.39-0.35Q112.14 0 111.02 0.28 109.89 0.55 108.44 0.55L108.44 0.55Q105.24 0.55 103.99-1.15 102.74-2.85 102.74-5.9L102.74-5.9 102.74-21.7 99.04-21.7 99.04-24.2Q101.04-24.25 102.19-25.53 103.34-26.8 103.94-28.6 104.54-30.4 104.84-31.95L104.84-31.95ZM127.14-25.45L127.14-25.45Q130.14-25.45 132.19-24.23 134.24-23 135.26-20.83 136.29-18.65 136.29-15.75L136.29-15.75Q136.29-15.05 136.21-14.33 136.14-13.6 136.04-12.8L136.04-12.8 120.24-12.8Q120.24-8.05 122.34-5.45 124.44-2.85 127.94-2.85L127.94-2.85Q129.39-2.85 130.96-3.3 132.54-3.75 134.24-4.65L134.24-4.65 135.79-2.15Q134.04-0.75 131.84-0.05 129.64 0.65 127.39 0.65L127.39 0.65Q123.49 0.65 120.91-1.2 118.34-3.05 117.09-6 115.84-8.95 115.84-12.15L115.84-12.15Q115.84-14.65 116.54-17 117.24-19.35 118.66-21.28 120.09-23.2 122.19-24.33 124.29-25.45 127.14-25.45ZM126.74-22.3L126.74-22.3Q125.04-22.3 123.74-21.35 122.44-20.4 121.64-18.93 120.84-17.45 120.54-15.9L120.54-15.9 131.94-15.9Q131.99-18 131.36-19.43 130.74-20.85 129.56-21.58 128.39-22.3 126.74-22.3ZM162.48-25.45L162.48-25.45Q166.43-25.45 168.43-23.3 170.43-21.15 170.43-17.25L170.43-17.25 170.43-4.8Q170.43-3.75 170.83-3.38 171.23-3 171.78-3L171.78-3Q172.23-3 172.73-3.13 173.23-3.25 173.68-3.45L173.68-3.45 174.58-0.75Q173.78-0.3 172.56 0.08 171.33 0.45 170.03 0.45L170.03 0.45Q168.73 0.45 167.68-0.28 166.63-1 166.38-2.95L166.38-2.95Q164.93-1.4 162.98-0.43 161.03 0.55 158.88 0.55L158.88 0.55Q155.93 0.55 153.98-1.2 152.03-2.95 152.03-6L152.03-6Q152.03-8.85 153.41-10.55 154.78-12.25 156.98-13.1 159.18-13.95 161.66-14.25 164.13-14.55 166.28-14.55L166.28-14.55 166.28-17.2Q166.28-19.3 165.43-20.75 164.58-22.2 162.13-22.2L162.13-22.2Q160.23-22.2 158.48-21.45 156.73-20.7 154.98-19.25L154.98-19.25 152.93-22.2Q154.98-23.85 157.43-24.65 159.88-25.45 162.48-25.45ZM166.28-9.7L166.28-11.3Q164.93-11.3 163.23-11.18 161.53-11.05 159.93-10.58 158.33-10.1 157.31-9.05 156.28-8 156.28-6.15L156.28-6.15Q156.28-4.5 157.41-3.73 158.53-2.95 160.23-2.95L160.23-2.95Q162.03-2.95 163.38-3.95 164.73-4.95 165.51-6.5 166.28-8.05 166.28-9.7L166.28-9.7ZM187.88-25.4L187.88-25.4Q189.58-25.4 191.28-24.85 192.98-24.3 194.23-23.15L194.23-23.15Q194.18-23.85 194.16-24.53 194.13-25.2 194.13-25.85L194.13-25.85 194.13-35.15 193.43-38.1 198.23-38.1 198.23-7.15Q198.23-6.1 198.38-4.8 198.53-3.5 198.88-2.27 199.23-1.05 199.78-0.1L199.78-0.1 195.38 0.45Q195.03-0.4 194.78-1.25 194.53-2.1 194.43-2.95L194.43-2.95Q193.13-1.25 191.18-0.3 189.23 0.65 187.08 0.65L187.08 0.65Q184.48 0.65 182.53-0.45 180.58-1.55 179.31-3.43 178.03-5.3 177.41-7.58 176.78-9.85 176.78-12.2L176.78-12.2Q176.78-15.6 178.01-18.63 179.23-21.65 181.68-23.53 184.13-25.4 187.88-25.4ZM187.98-22L187.98-22Q186.03-22 184.71-21.15 183.38-20.3 182.61-18.9 181.83-17.5 181.51-15.83 181.18-14.15 181.18-12.5L181.18-12.5Q181.18-10.8 181.56-9.13 181.93-7.45 182.76-6.05 183.58-4.65 184.96-3.83 186.33-3 188.33-3L188.33-3Q190.08-3 191.56-4.03 193.03-5.05 194.13-6.3L194.13-6.3 194.13-14.7Q194.13-16.7 193.51-18.35 192.88-20 191.53-21 190.18-22 187.98-22ZM214.63-25.45L214.63-25.45Q216.33-25.45 218-25.03 219.68-24.6 221.08-23.7L221.08-23.7 219.63-20.5Q218.53-21.4 217.18-21.85 215.83-22.3 214.53-22.3L214.53-22.3Q212.68-22.3 211.3-21.45 209.93-20.6 209.93-18.9L209.93-18.9Q209.93-17.05 211.15-16.15 212.38-15.25 214.08-14.45L214.08-14.45Q215.33-13.85 216.6-13.23 217.88-12.6 218.95-11.73 220.03-10.85 220.7-9.63 221.38-8.4 221.38-6.6L221.38-6.6Q221.38-4.1 220.15-2.48 218.93-0.85 216.95-0.1 214.98 0.65 212.68 0.65L212.68 0.65Q210.68 0.65 208.68 0.1 206.68-0.45 204.98-1.45L204.98-1.45 206.73-4.5Q207.93-3.6 209.43-3.05 210.93-2.5 212.33-2.5L212.33-2.5Q214.23-2.5 215.65-3.4 217.08-4.3 217.08-6.1L217.08-6.1Q217.08-7.35 216.3-8.18 215.53-9 214.33-9.65 213.13-10.3 211.83-10.9L211.83-10.9Q210.33-11.65 208.9-12.53 207.48-13.4 206.58-14.75 205.68-16.1 205.68-18.2L205.68-18.2Q205.68-20.6 206.95-22.2 208.23-23.8 210.28-24.63 212.33-25.45 214.63-25.45ZM248.67 0.65L248.67 0.65Q245.02 0.65 242.55-1.18 240.07-3 238.85-5.95 237.62-8.9 237.62-12.25L237.62-12.25Q237.62-15.6 238.95-18.63 240.27-21.65 242.82-23.55 245.37-25.45 248.97-25.45L248.97-25.45Q252.67-25.45 255.15-23.65 257.62-21.85 258.85-18.9 260.07-15.95 260.07-12.55L260.07-12.55Q260.07-9.15 258.77-6.13 257.47-3.1 254.92-1.23 252.37 0.65 248.67 0.65ZM248.72-2.5L248.72-2.5Q250.67-2.5 252-3.43 253.32-4.35 254.15-5.85 254.97-7.35 255.32-9.08 255.67-10.8 255.67-12.4L255.67-12.4Q255.67-14.05 255.35-15.78 255.02-17.5 254.27-18.98 253.52-20.45 252.2-21.38 250.87-22.3 248.92-22.3L248.92-22.3Q246.97-22.3 245.65-21.38 244.32-20.45 243.52-18.95 242.72-17.45 242.37-15.73 242.02-14 242.02-12.4L242.02-12.4Q242.02-10.85 242.37-9.13 242.72-7.4 243.5-5.9 244.27-4.4 245.57-3.45 246.87-2.5 248.72-2.5ZM264.27-24.65L268.82-25.25Q269.17-24.4 269.42-23.5 269.67-22.6 269.77-21.7L269.77-21.7Q271.27-23.2 273.32-24.33 275.37-25.45 277.52-25.45L277.52-25.45Q280.27-25.45 281.94-24.3 283.62-23.15 284.37-21.18 285.12-19.2 285.12-16.6L285.12-16.6 285.12 0 281.02 0 281.02-15.25Q281.02-16.8 280.8-18.3 280.57-19.8 279.69-20.78 278.82-21.75 276.82-21.75L276.82-21.75Q275.62-21.75 274.37-21.28 273.12-20.8 272.02-20.05 270.92-19.3 270.02-18.45L270.02-18.45 270.02 0 265.92 0 265.92-17.6Q265.92-18.6 265.77-19.93 265.62-21.25 265.27-22.53 264.92-23.8 264.27-24.65L264.27-24.65ZM292.82-38.1L297.62-38.1 297.62 0 293.47 0 293.47-35.2 292.82-38.1ZM311.07-33.2L311.07-33.2Q311.07-31.95 310.19-31.05 309.32-30.15 308.02-30.15L308.02-30.15Q306.77-30.15 305.89-31.05 305.02-31.95 305.02-33.2L305.02-33.2Q305.02-34.45 305.89-35.35 306.77-36.25 308.02-36.25L308.02-36.25Q309.27-36.25 310.17-35.35 311.07-34.45 311.07-33.2ZM305.42-24.85L310.17-24.85 310.17 0 306.02 0 306.02-21.9 305.42-24.85ZM316.71-24.65L321.26-25.25Q321.61-24.4 321.86-23.5 322.11-22.6 322.21-21.7L322.21-21.7Q323.71-23.2 325.76-24.33 327.81-25.45 329.96-25.45L329.96-25.45Q332.71-25.45 334.39-24.3 336.06-23.15 336.81-21.18 337.56-19.2 337.56-16.6L337.56-16.6 337.56 0 333.46 0 333.46-15.25Q333.46-16.8 333.24-18.3 333.01-19.8 332.14-20.78 331.26-21.75 329.26-21.75L329.26-21.75Q328.06-21.75 326.81-21.28 325.56-20.8 324.46-20.05 323.36-19.3 322.46-18.45L322.46-18.45 322.46 0 318.36 0 318.36-17.6Q318.36-18.6 318.21-19.93 318.06-21.25 317.71-22.53 317.36-23.8 316.71-24.65L316.71-24.65ZM355.21-25.45L355.21-25.45Q358.21-25.45 360.26-24.23 362.31-23 363.34-20.83 364.36-18.65 364.36-15.75L364.36-15.75Q364.36-15.05 364.29-14.33 364.21-13.6 364.11-12.8L364.11-12.8 348.31-12.8Q348.31-8.05 350.41-5.45 352.51-2.85 356.01-2.85L356.01-2.85Q357.46-2.85 359.04-3.3 360.61-3.75 362.31-4.65L362.31-4.65 363.86-2.15Q362.11-0.75 359.91-0.05 357.71 0.65 355.46 0.65L355.46 0.65Q351.56 0.65 348.99-1.2 346.41-3.05 345.16-6 343.91-8.95 343.91-12.15L343.91-12.15Q343.91-14.65 344.61-17 345.31-19.35 346.74-21.28 348.16-23.2 350.26-24.33 352.36-25.45 355.21-25.45ZM354.81-22.3L354.81-22.3Q353.11-22.3 351.81-21.35 350.51-20.4 349.71-18.93 348.91-17.45 348.61-15.9L348.61-15.9 360.01-15.9Q360.06-18 359.44-19.43 358.81-20.85 357.64-21.58 356.46-22.3 354.81-22.3Z" opacity="1" transform="matrix(1,0,0,1,0,0)" fill="#001f3f" class="undefined-text-1" data-fill-palette-color="secondary" id="text-1"></path></svg></g></svg></g></svg></g></svg></g><g></g></svg></g></svg></g></svg></g><path d="M0 64.249L0 1 244.431 1 244.431 64.249 238.555 64.249 238.555 6.876 5.876 6.876 5.876 64.249 0 64.249M0 182.951L0 246.2 244.431 246.2 244.431 182.951 238.555 182.951 238.555 240.324 5.876 240.324 5.876 182.951 0 182.951" fill="#000000" stroke="transparent" data-fill-palette-color="primary"></path></svg></g><defs></defs></svg><rect width="244.43135999999998" height="247.2" fill="none" stroke="none" visibility="hidden"></rect></g></svg></g></svg>